#!OML:ASF F:\VICON\USERDATA\INSTALL\rory3\rory3.ASF
:FULLY-SPECIFIED
:DEGREES
147
root 1.03593 18.3535 0.503011 -59.1693 -81.7352 65.7336
lowerback 34.2036 0.525134 -0.321995
upperback 7.39116 0.288124 5.15766
thorax -9.3304 -0.234839 5.61348
lowerneck -8.55279 -2.50181 -6.81175
upperneck 17.8269 -1.75322 -5.35504
head 6.9132 -1.86541 -0.767191
rclavicle 2.06736e-014 -1.11319e-014
rhumerus -12.5417 -47.0479 -48.1707
rradius 60.4963
rwrist -16.5993
rhand -5.40163 1.17364
rfingers 7.12502
rthumb 20.4075 -27.774
lclavicle 2.06736e-014 -1.11319e-014
lhumerus -44.0551 3.99156 81.7144
lradius 58.2784
lwrist 12.4222
lhand -14.1114 50.0714
lfingers 7.12502
lthumb 12.0217 79.7061
rfemur -33.3376 -8.0343 20.028
rtibia 55.1822
rfoot -5.65576 0.165489
rtoes -2.28246
lfemur -26.8311 -3.81352 -19.3725
ltibia 36.9689
lfoot -10.3287 -1.52896
ltoes -33.8103
148
root 1.07216 18.3353 0.664032 -61.3723 -81.4826 67.8078
lowerback 34.4369 0.54081 -0.294131
upperback 7.33236 0.304416 4.94959
thorax -9.47772 -0.222996 5.3722
lowerneck -8.51993 -2.43982 -6.57757
upperneck 17.5783 -1.69258 -5.47171
head 6.82123 -1.81814 -0.83283
rclavicle 3.02153e-014 2.54444e-014
rhumerus -12.4967 -46.9688 -47.2808
rradius 61.5157
rwrist -16.2519
rhand -3.90662 1.09415
rfingers 7.12502
rthumb 21.8436 -27.693
lclavicle 3.02153e-014 2.54444e-014
lhumerus -44.7049 3.52224 81.4056
lradius 58.9436
lwrist 12.9605
lhand -13.612 49.6818
lfingers 7.12502
lthumb 12.5032 79.2877
rfemur -32.4786 -7.61146 19.4242
rtibia 54.3426
rfoot -6.11231 -0.000314293
rtoes 8.4679
lfemur -26.2755 -3.44399 -18.9274
ltibia 37.3653
lfoot -11.4071 -0.710634
ltoes -30.6753
149
root 1.11347 18.3086 0.816292 -62.7051 -81.1594 69.0176
lowerback 34.5424 0.483626 -0.133362
upperback 7.36411 0.250953 4.61545
thorax -9.46371 -0.249806 4.94644
lowerneck -8.70062 -2.44484 -5.90582
upperneck 17.4517 -1.73484 -5.74536
head 6.79781 -1.8111 -1.03356
rclavicle 3.18055e-015 -1.74931e-014
rhumerus -12.206 -47.3893 -46.6125
rradius 62.4083
rwrist -14.7921
rhand -1.08421 1.14282
rfingers 7.12502
rthumb 24.5515 -27.3031
lclavicle 3.18055e-015 -1.74931e-014
lhumerus -45.2941 2.89291 81.0163
lradius 59.7333
lwrist 13.497
lhand -15.4687 49.6648
lfingers 7.12502
lthumb 10.7127 79.3716
rfemur -31.685 -7.07578 18.7679
rtibia 53.6249
rfoot -7.59208 -0.0236232
rtoes 13.8832
lfemur -25.8156 -3.21536 -18.3874
ltibia 37.8377
lfoot -12.0059 -0.420281
ltoes -25.656
150
root 1.16211 18.2596 0.958399 -63.1195 -81.098 69.6012
lowerback 34.4585 0.301281 0.112883
upperback 7.24736 0.0927494 4.30379
thorax -9.53656 -0.316056 4.54047
lowerneck -8.88645 -2.26697 -5.15656
upperneck 17.5292 -1.53775 -6.00089
head 6.84108 -1.69289 -1.22463
rclavicle 7.95139e-015 -5.40694e-014
rhumerus -11.7711 -47.4454 -46.3669
rradius 63.3927
rwrist -12.2569
rhand 1.95554 1.28149
rfingers 7.12502
rthumb 27.4621 -26.7364
lclavicle 7.95139e-015 -5.40694e-014
lhumerus -46.1778 2.80353 80.4376
lradius 60.4541
lwrist 13.6204
lhand -16.7413 49.7294
lfingers 7.12502
lthumb 9.48493 79.4959
rfemur -31.4225 -6.63548 18.5653
rtibia 53.0769
rfoot -9.41216 -0.974995
rtoes 12.4694
lfemur -25.815 -2.85509 -17.4935
ltibia 38.3923
lfoot -12.1312 0.12851
ltoes -25.8825
151
root 1.20474 18.1971 1.10167 -63.287 -80.7739 69.8338
lowerback 34.5257 -0.0781031 0.287028
upperback 7.0961 -0.351484 3.83131
thorax -9.68715 -0.511387 4.11427
lowerneck -8.89996 -1.9759 -4.45641
upperneck 17.3286 -1.21545 -6.18847
head 6.76874 -1.49856 -1.36829
rclavicle -3.18055e-014 -1.43125e-014
rhumerus -11.0936 -47.1167 -46.691
rradius 64.3522
rwrist -9.26598
rhand 4.21157 1.93096
rfingers 7.12502
rthumb 29.6177 -25.7249
lclavicle -3.18055e-014 -1.43125e-014
lhumerus -47.1894 2.80962 79.503
lradius 61.1597
lwrist 13.848
lhand -13.354 48.0884
lfingers 7.12502
lthumb 12.752 77.679
rfemur -31.1764 -6.07942 18.0142
rtibia 52.6636
rfoot -11.1533 -2.69377
rtoes 11.0353
lfemur -25.7653 -3.30089 -16.8013
ltibia 39.0081
lfoot -11.8771 1.26886
ltoes -28.6442
